<svg xmlns="http://www.w3.org/2000/svg" width="26.41" height="26.41" viewBox="0 0 26.41 26.41">
  <g id="globe" transform="translate(0)">
    <g id="Group_3237" data-name="Group 3237" transform="translate(0)">
      <path id="Path_10016" data-name="Path 10016" d="M13.2,0a13.2,13.2,0,1,0,13.2,13.2A13.22,13.22,0,0,0,13.2,0Zm9.023,20.073a13.029,13.029,0,0,0-1.885-1.481,17.442,17.442,0,0,0,.775-4.457h3.393A11.284,11.284,0,0,1,22.228,20.073ZM1.9,14.135H5.292a17.455,17.455,0,0,0,.766,4.428,12.976,12.976,0,0,0-1.9,1.477A11.284,11.284,0,0,1,1.9,14.135ZM4.156,6.371a12.977,12.977,0,0,0,1.9,1.477,17.457,17.457,0,0,0-.766,4.428H1.9A11.284,11.284,0,0,1,4.156,6.371Zm8.12,1.652A11.451,11.451,0,0,1,8.367,7a10.537,10.537,0,0,1,3.908-4.66Zm0,1.864v2.389H7.154A15.71,15.71,0,0,1,7.729,8.75,13.319,13.319,0,0,0,12.275,9.886Zm0,4.249v2.389a13.319,13.319,0,0,0-4.546,1.136,15.711,15.711,0,0,1-.576-3.525Zm0,4.253v5.686a10.537,10.537,0,0,1-3.908-4.66A11.45,11.45,0,0,1,12.275,18.388Zm1.86,0a11.292,11.292,0,0,1,3.9,1.043,10.531,10.531,0,0,1-3.9,4.641Zm0-1.864v-2.39h5.121a15.7,15.7,0,0,1-.581,3.543A13.157,13.157,0,0,0,14.135,16.524Zm0-4.249V9.885a13.155,13.155,0,0,0,4.54-1.153,15.7,15.7,0,0,1,.581,3.543Zm0-4.254V2.337a10.533,10.533,0,0,1,3.9,4.641A11.291,11.291,0,0,1,14.135,8.021Zm3.273-5.354a11.374,11.374,0,0,1,3.575,2.287,11.162,11.162,0,0,1-1.329,1.087A12.965,12.965,0,0,0,17.408,2.667ZM6.742,6.07A11.1,11.1,0,0,1,5.4,4.983,11.375,11.375,0,0,1,9,2.667,12.977,12.977,0,0,0,6.742,6.07Zm0,14.269A12.976,12.976,0,0,0,9,23.742,11.375,11.375,0,0,1,5.4,21.427,11.1,11.1,0,0,1,6.742,20.339Zm12.913.029a11.17,11.17,0,0,1,1.329,1.087,11.374,11.374,0,0,1-3.575,2.287A12.968,12.968,0,0,0,19.655,20.369Zm1.464-8.094a17.444,17.444,0,0,0-.775-4.457,13.029,13.029,0,0,0,1.885-1.481,11.284,11.284,0,0,1,2.283,5.938Z" fill="#fff"/>
    </g>
  </g>
</svg>
