<svg xmlns="http://www.w3.org/2000/svg" width="24.41" height="30.172" viewBox="0 0 24.41 30.172">
  <g id="Group_4293" data-name="Group 4293" transform="translate(-0.001)">
    <g id="Group_3224" data-name="Group 3224" transform="translate(0.001)">
      <g id="Group_3223" data-name="Group 3223">
        <path id="Path_10009" data-name="Path 10009" d="M71.106,5.246a12.182,12.182,0,0,0-20.03,0,12.184,12.184,0,0,0-1.419,11.226,9.6,9.6,0,0,0,1.768,2.92L60.288,29.8a1.054,1.054,0,0,0,1.606,0l8.859-10.406a9.6,9.6,0,0,0,1.768-2.916A12.186,12.186,0,0,0,71.106,5.246Zm-.56,10.494a7.526,7.526,0,0,1-1.392,2.279l0,.006L61.091,27.49l-8.063-9.471a7.53,7.53,0,0,1-1.394-2.286,10.078,10.078,0,0,1,1.178-9.287,10.072,10.072,0,0,1,16.558,0A10.08,10.08,0,0,1,70.546,15.74Z" transform="translate(-48.886 0)" fill="#fff"/>
      </g>
    </g>
    <g id="Group_3226" data-name="Group 3226" transform="translate(6.298 6.26)">
      <g id="Group_3225" data-name="Group 3225">
        <path id="Path_10010" data-name="Path 10010" d="M161.662,106.219a5.908,5.908,0,1,0,5.908,5.908A5.914,5.914,0,0,0,161.662,106.219Zm0,9.706a3.8,3.8,0,1,1,3.8-3.8A3.8,3.8,0,0,1,161.662,115.925Z" transform="translate(-155.754 -106.219)" fill="#fff"/>
      </g>
    </g>
  </g>
</svg>
