<svg id="mail_2_" data-name="mail(2)" xmlns="http://www.w3.org/2000/svg" width="28.171" height="20.317" viewBox="0 0 28.171 20.317">
  <g id="Group_3228" data-name="Group 3228">
    <g id="Group_3227" data-name="Group 3227">
      <path id="Path_10011" data-name="Path 10011" d="M26.548,71.373H1.623A1.625,1.625,0,0,0,0,73V90.067A1.625,1.625,0,0,0,1.623,91.69H26.548a1.625,1.625,0,0,0,1.623-1.623V73A1.625,1.625,0,0,0,26.548,71.373Zm-.325,18.369H1.947V73.32H26.224V89.742Z" transform="translate(0 -71.373)" fill="#fff"/>
    </g>
  </g>
  <g id="Group_3230" data-name="Group 3230" transform="translate(0.473 2.118)">
    <g id="Group_3229" data-name="Group 3229">
      <path id="Path_10012" data-name="Path 10012" d="M34.812,109.868l-12.627,7.564L9.591,109.869l-1,1.669,12.773,7.67a1.686,1.686,0,0,0,.836.226,1.563,1.563,0,0,0,.844-.245l12.772-7.651Z" transform="translate(-8.588 -109.868)" fill="#fff"/>
    </g>
  </g>
  <g id="Group_3232" data-name="Group 3232" transform="translate(16.776 8.074)">
    <g id="Group_3231" data-name="Group 3231" transform="translate(0 0)">
      <rect id="Rectangle_569" data-name="Rectangle 569" width="1.947" height="14.381" transform="translate(0 1.314) rotate(-42.439)" fill="#fff"/>
    </g>
  </g>
  <g id="Group_3234" data-name="Group 3234" transform="translate(0.254 8.104)">
    <g id="Group_3233" data-name="Group 3233" transform="translate(0 0)">
      <rect id="Rectangle_570" data-name="Rectangle 570" width="14.335" height="1.947" transform="translate(0 10.581) rotate(-47.569)" fill="#fff"/>
    </g>
  </g>
</svg>
