<svg xmlns="http://www.w3.org/2000/svg" width="28.84" height="28.823" viewBox="0 0 28.84 28.823">
  <g id="phone_1_" data-name="phone(1)" transform="translate(0)">
    <g id="Group_3236" data-name="Group 3236" transform="translate(0 0)">
      <g id="Group_3235" data-name="Group 3235">
        <path id="Path_10013" data-name="Path 10013" d="M20.245,35.5a.789.789,0,0,0-1.115-.048c-.017.015-.033.031-.048.048l-2.907,2.906a.789.789,0,0,0-.048,1.115c.015.017.031.033.048.048l.332.332-.913.913a.54.54,0,0,1-.747,0L8.162,34.131a.54.54,0,0,1,0-.747l.913-.913.332.332a.789.789,0,0,0,1.115.048c.017-.015.033-.031.048-.048L13.477,29.9a.831.831,0,0,0,.249-.581.706.706,0,0,0-.249-.581l-6.6-6.644a.872.872,0,0,0-1.163,0L2.806,25a.851.851,0,0,0,0,1.2l.623.623L1.56,28.691a5.356,5.356,0,0,0,0,7.557L12.73,47.417a5.4,5.4,0,0,0,7.557,0l1.868-1.868.623.623a.851.851,0,0,0,1.2,0l2.907-2.906a.913.913,0,0,0,.208-.581,1,1,0,0,0-.208-.581ZM6.294,23.875l5.439,5.439-1.744,1.7L4.55,25.577Zm12.83,22.339a3.7,3.7,0,0,1-5.226.006l-.006-.006L2.764,35.086a3.7,3.7,0,0,1-.006-5.226l.006-.006,1.868-1.868,3.28,3.322L7,32.221a2.118,2.118,0,0,0-.079,2.994q.038.041.079.079l6.685,6.685a2.118,2.118,0,0,0,2.994.079q.041-.038.079-.079l.913-.913,3.322,3.28ZM23.4,44.428l-5.439-5.439,1.7-1.744L25.1,42.684Z" transform="translate(0 -20.138)" fill="#fff"/>
        <path id="Path_10014" data-name="Path 10014" d="M191.82,66.551h0a6.021,6.021,0,0,1,6.021,6.021.83.83,0,0,0,1.661,0,7.682,7.682,0,0,0-7.682-7.681.83.83,0,0,0,0,1.661Z" transform="translate(-175.811 -59.741)" fill="#fff"/>
        <path id="Path_10015" data-name="Path 10015" d="M196.522.106a.83.83,0,0,0,0,1.661h.083a10.754,10.754,0,0,1,10.713,10.8.83.83,0,0,0,1.661,0A12.457,12.457,0,0,0,196.522.106Z" transform="translate(-180.139 -0.106)" fill="#fff"/>
      </g>
    </g>
  </g>
</svg>
